<svg width="63" height="62" viewBox="0 0 63 62" fill="none" xmlns="http://www.w3.org/2000/svg">
<circle cx="31.5" cy="31" r="31" fill="#88AD2A" fill-opacity="0.2"/>
<circle opacity="0.8" cx="31.4997" cy="31" r="23.1091" fill="#88AD2A"/>
<path d="M40.9367 40.8753L38.3655 36.4098C37.8526 35.5232 36.6874 35.2338 35.7682 35.7661L33.5217 37.0662C33.4264 36.9744 33.3279 36.8788 33.2244 36.7777C32.2725 35.8569 30.9699 34.5955 29.792 32.5484C28.6103 30.4965 28.1719 28.7322 27.8509 27.444C27.8171 27.3076 27.785 27.1762 27.7521 27.0508L29.2594 26.1798L30.0009 25.7499C30.9215 25.2168 31.2529 24.0604 30.7421 23.1722L28.1711 18.7063C27.6601 17.8191 26.4944 17.5295 25.5738 18.0626L24.3155 18.7958L24.3353 18.83C23.8893 19.1658 23.4804 19.5815 23.1322 20.0545C22.807 20.5065 22.5599 20.9547 22.3768 21.4211C20.8792 25.1535 21.6932 29.1495 25.1838 35.2113C30.009 43.5901 35.4589 44.5151 35.6947 44.5521C36.2102 44.6261 36.721 44.6348 37.2582 44.5758C37.8357 44.5112 38.3987 44.3643 38.9113 44.1455L38.9278 44.1706L40.1954 43.4545C41.1145 42.9211 41.4468 41.7645 40.9367 40.8753Z" fill="white"/>
</svg>
