<svg width="14" height="17" viewBox="0 0 14 17" fill="none" xmlns="http://www.w3.org/2000/svg">
<path d="M6.99973 0C3.41595 0 0.5 2.8077 0.5 6.25878C0.5 7.15896 0.691349 8.01842 1.06845 8.81351C2.69356 12.2376 5.80935 15.8528 6.72581 16.8791C6.79447 16.9558 6.89457 17 6.99991 17C7.10525 17 7.20535 16.9558 7.27401 16.8791C8.19011 15.8529 11.3059 12.238 12.9316 8.81351C13.3088 8.01842 13.5 7.15896 13.5 6.25878C13.4996 2.8077 10.5837 0 6.99973 0ZM6.99973 9.50961C5.13809 9.50961 3.62338 8.05113 3.62338 6.25861C3.62338 4.46591 5.13809 3.00743 6.99973 3.00743C8.86136 3.00743 10.3761 4.46591 10.3761 6.25861C10.3763 8.05113 8.86154 9.50961 6.99973 9.50961Z" fill="white"/>
</svg>
