<svg width="31" height="30" viewBox="0 0 31 30" fill="none" xmlns="http://www.w3.org/2000/svg">
<path d="M17.7146 26.2093L17.8484 21.6402C17.8731 20.7319 17.1274 19.9715 16.1854 19.9463L13.8837 19.884C13.8544 19.7703 13.8244 19.6523 13.7933 19.5278C13.5022 18.3896 13.1046 16.831 13.1665 14.7367C13.2277 12.6372 13.7168 11.1004 14.0732 9.97793C14.1111 9.85918 14.1479 9.74496 14.1814 9.6349L15.7252 9.67766L16.4852 9.69768C17.4286 9.72297 18.2166 9.00333 18.2437 8.09488L18.3777 3.52551C18.4041 2.61768 17.6581 1.8569 16.7147 1.83161L15.4231 1.8005L15.4222 1.83556C14.9291 1.8819 14.427 2.00578 13.944 2.20129C13.4882 2.39153 13.093 2.61523 12.7379 2.88249C9.87108 5.00601 8.62814 8.40342 8.44687 14.606C8.19667 23.1795 11.8839 26.4122 12.0449 26.5499C12.4 26.8455 12.7818 27.0895 13.2151 27.2947C13.6814 27.5144 14.1751 27.6651 14.6641 27.7382L14.6648 27.7648L15.9555 27.8132C16.8978 27.8376 17.6866 27.1182 17.7146 26.2093Z" fill="white"/>
</svg>
