<svg width="30" height="30" viewBox="0 0 30 30" fill="none" xmlns="http://www.w3.org/2000/svg">
<path d="M17.2146 26.2093L17.3484 21.6402C17.3731 20.7319 16.6274 19.9715 15.6854 19.9463L13.3837 19.884C13.3544 19.7703 13.3244 19.6523 13.2933 19.5278C13.0022 18.3896 12.6046 16.831 12.6665 14.7367C12.7277 12.6372 13.2168 11.1004 13.5732 9.97793C13.6111 9.85918 13.6479 9.74496 13.6814 9.6349L15.2252 9.67766L15.9852 9.69768C16.9286 9.72297 17.7166 9.00333 17.7437 8.09488L17.8777 3.52551C17.9041 2.61768 17.1581 1.8569 16.2147 1.83161L14.9231 1.8005L14.9222 1.83556C14.4291 1.8819 13.927 2.00578 13.444 2.20129C12.9882 2.39153 12.593 2.61523 12.2379 2.88249C9.37108 5.00601 8.12814 8.40342 7.94687 14.606C7.69667 23.1795 11.3839 26.4122 11.5449 26.5499C11.9 26.8455 12.2818 27.0895 12.7151 27.2947C13.1814 27.5144 13.6751 27.6651 14.1641 27.7382L14.1648 27.7648L15.4555 27.8132C16.3978 27.8376 17.1866 27.1182 17.2146 26.2093Z" fill="#88AD2A"/>
</svg>
