<svg width="39" height="38" viewBox="0 0 39 38" fill="none" xmlns="http://www.w3.org/2000/svg">
<path fill-rule="evenodd" clip-rule="evenodd" d="M19.5 0C9.00659 0 0.5 8.50659 0.5 19C0.5 29.4934 9.00659 38 19.5 38C29.9934 38 38.5 29.4934 38.5 19C38.5 8.50659 29.9934 0 19.5 0ZM20.3065 16.216C19.9508 15.9344 19.4501 15.9275 19.0868 16.1992L12.4011 21.1992C11.9588 21.5299 11.8684 22.1566 12.1992 22.5989C12.5299 23.0412 13.1566 23.1316 13.5989 22.8008L19.6683 18.2618L25.3792 22.784C25.8122 23.1268 26.4411 23.0538 26.784 22.6208C27.1268 22.1878 27.0538 21.5589 26.6208 21.216L20.3065 16.216Z" fill="#1C9D38" fill-opacity="0.6"/>
</svg>
