<svg width="25" height="25" viewBox="0 0 25 25" fill="none" xmlns="http://www.w3.org/2000/svg">
<path d="M13.726 9.4401H10.7848V6.60805C10.7848 6.34751 10.5652 6.13605 10.2946 6.13605C10.0241 6.13605 9.80445 6.34751 9.80445 6.60805V9.4401H6.86325C6.59266 9.4401 6.37305 9.65156 6.37305 9.91211C6.37305 10.1727 6.59266 10.3841 6.86325 10.3841H9.80445V13.2162C9.80445 13.4767 10.0241 13.6882 10.2946 13.6882C10.5652 13.6882 10.7848 13.4767 10.7848 13.2162V10.3841H13.726C13.9966 10.3841 14.2162 10.1727 14.2162 9.91211C14.2162 9.65156 13.9966 9.4401 13.726 9.4401Z" fill="#2A2B2E"/>
<path d="M24.8634 24.2009L17.5795 16.9071C19.4374 15.113 20.5884 12.6397 20.5884 9.91202C20.5884 4.44625 15.9707 0 10.2942 0C4.61767 0 0 4.44625 0 9.91202C0 15.3778 4.61767 19.824 10.2942 19.824C12.7859 19.824 15.0726 18.9664 16.855 17.5433L24.1565 24.8551C24.2526 24.9519 24.381 25 24.51 25C24.6325 25 24.7546 24.9561 24.8497 24.8683C25.0448 24.6875 25.0506 24.3888 24.8634 24.2009ZM0.980398 9.91202C0.980398 4.96687 5.15836 0.944002 10.2942 0.944002C15.43 0.944002 19.608 4.96687 19.608 9.91202C19.608 14.8572 15.43 18.88 10.2942 18.88C5.15836 18.88 0.980398 14.8572 0.980398 9.91202Z" fill="#2A2B2E"/>
</svg>
